<svg xmlns="http://www.w3.org/2000/svg" width="20" height="20" viewBox="0 0 20 20">
    <defs>
        <radialGradient id="0n9pgeu31a" cx="50%" cy="50%" r="50%" fx="50%" fy="50%">
            <stop offset="0%" stop-color="#008471"/>
            <stop offset="100%" stop-color="#103051"/>
        </radialGradient>
    </defs>
    <g fill="none" fill-rule="evenodd">
        <g>
            <g>
                <g transform="translate(-110.000000, -529.000000) translate(90.000000, 453.000000) translate(20.000000, 76.000000)">
                    <circle cx="10" cy="10" r="9.182" fill="url(#0n9pgeu31a)" stroke="#00F6D2" stroke-width="2"/>
                    <g fill="#FFF">
                        <g>
                            <path d="M5.115 0l5.112 8.864H5.114V7.383h2.61l-2.61-4.597V0z" transform="translate(4.909091, 4.863636)"/>
                            <path d="M.001 0l5.113 8.864H0V7.383h2.61L0 2.787V0z" transform="translate(4.909091, 4.863636) translate(2.556818, 4.431818) scale(-1, 1) translate(-2.556818, -4.431818)"/>
                            <path d="M5.114 3.928L5.114 6.844 3.496 6.847z" transform="translate(4.909091, 4.863636)"/>
                            <path d="M6.731 3.928L6.731 6.844 5.114 6.847z" transform="translate(4.909091, 4.863636) translate(5.922426, 5.387180) scale(-1, 1) translate(-5.922426, -5.387180)"/>
                        </g>
                        <path d="M0 5.1L5.455 2.727 5.455 5.455 0 5.344z" transform="translate(4.909091, 4.863636) translate(2.727273, 4.090909) scale(-1, 1) translate(-2.727273, -4.090909)"/>
                        <path d="M5.455 5.1L10.909 2.727 10.909 5.455 5.455 5.344z" transform="translate(4.909091, 4.863636)"/>
                    </g>
                </g>
            </g>
        </g>
    </g>
</svg>
