<svg xmlns="http://www.w3.org/2000/svg" width="60" height="60" viewBox="0 0 60 60">
    <g fill="none" fill-rule="evenodd">
        <g>
            <g>
                <g transform="translate(-748.000000, -553.000000) translate(552.000000, 453.000000) translate(196.000000, 100.000000)">
                    <circle cx="30" cy="30" r="30" fill="#FFF" fill-opacity=".05"/>
                    <g fill-rule="nonzero" opacity=".4">
                        <g>
                            <path fill="#39FFF2" d="M29.974 7.697L28.216.666C28.118.274 27.766 0 27.363 0H2.637c-.404 0-.755.274-.853.666L.026 7.697C.01 7.767 0 7.838 0 7.91c0 .486.394.88.879.88H29.12c.485 0 .879-.394.879-.88 0-.072-.009-.143-.026-.213z" transform="translate(15.000000, 15.000000) translate(0.000000, 11.718750)"/>
                            <path fill="#05E2C2" d="M28.216.666C28.118.274 27.766 0 27.363 0H15v8.79h14.121c.485 0 .879-.394.879-.88 0-.072-.009-.143-.026-.213L28.216.666z" transform="translate(15.000000, 15.000000) translate(0.000000, 11.718750)"/>
                            <path fill="#39FFF2" d="M27.363 18.281H2.637c-.486 0-.88-.393-.88-.879v-5.976c0-.486.394-.88.88-.88h24.726c.486 0 .88.394.88.88v5.976c0 .486-.394.88-.88.88z" transform="translate(15.000000, 15.000000) translate(0.000000, 11.718750)"/>
                            <path fill="#05E2C2" d="M28.242 17.402v-5.976c0-.486-.393-.88-.879-.88H15v7.735h12.363c.486 0 .88-.393.88-.879z" transform="translate(15.000000, 15.000000) translate(0.000000, 11.718750)"/>
                            <path fill="#05E2C2" d="M0 7.91v3.516c0 .485.394.879.879.879H29.12c.485 0 .879-.394.879-.88V7.91H0z" transform="translate(15.000000, 15.000000) translate(0.000000, 11.718750)"/>
                            <path fill="#00AA92" d="M15 12.305h14.121c.485 0 .879-.394.879-.88V7.91H15v4.395z" transform="translate(15.000000, 15.000000) translate(0.000000, 11.718750)"/>
                        </g>
                        <path fill="#00AA92" d="M24.375 16.992h-.879L15 16.406l-8.496.586h-.879c-.485 0-.879-.393-.879-.879 0-.485.394-.879.879-.879h18.75c.485 0 .879.394.879.88 0 .485-.394.878-.879.878z" transform="translate(15.000000, 15.000000)"/>
                        <path fill="#008C79" d="M24.375 15.234H15v1.172l8.496.586h.879c.485 0 .879-.393.879-.879 0-.485-.394-.879-.879-.879z" transform="translate(15.000000, 15.000000)"/>
                        <path fill="#FFF5F5" d="M23.496 16.992H6.504V.88c0-.485.393-.879.879-.879h15.234c.486 0 .88.394.88.879v16.113z" transform="translate(15.000000, 15.000000)"/>
                        <path fill="#E1EBF0" d="M23.496.879c0-.485-.393-.879-.879-.879H15v16.992h8.496V.88z" transform="translate(15.000000, 15.000000)"/>
                        <path fill="#0976FF" d="M13.5 10.934l-1.758-1.758c-.343-.343-.343-.9 0-1.243.343-.343.9-.343 1.243 0L14.12 9.07l2.894-2.895c.343-.343.9-.343 1.243 0 .343.344.343.9 0 1.243l-3.515 3.516c-.344.343-.9.343-1.243 0z" transform="translate(15.000000, 15.000000)"/>
                        <path fill="#042548" d="M18.258 6.175c-.343-.343-.9-.343-1.243 0L15 8.191v2.486l3.258-3.259c.343-.343.343-.9 0-1.243z" transform="translate(15.000000, 15.000000)"/>
                    </g>
                </g>
            </g>
        </g>
    </g>
</svg>
