<?xml version="1.0" encoding="UTF-8" standalone="no"?>
<!DOCTYPE svg PUBLIC "-//W3C//DTD SVG 1.1//EN" "http://www.w3.org/Graphics/SVG/1.1/DTD/svg11.dtd">
<svg version="1.1" xmlns="http://www.w3.org/2000/svg" xmlns:xlink="http://www.w3.org/1999/xlink" preserveAspectRatio="xMidYMid meet" viewBox="0 0 13 13" width="13" height="13"><defs><path d="M6.67 13.33C10.35 13.33 13.33 10.35 13.33 6.67C13.33 2.99 10.35 0 6.67 0C2.99 0 0 2.99 0 6.67C0 10.35 2.99 13.33 6.67 13.33ZM6 6.67C6 6.3 6.3 6 6.67 6C7.03 6 7.33 6.3 7.33 6.67C7.33 6.93 7.33 9.07 7.33 9.33C7.33 9.7 7.03 10 6.67 10C6.3 10 6 9.7 6 9.33C6 9.07 6 6.93 6 6.67ZM6 3.33L7.33 3.33L7.33 4.67L6 4.67L6 3.33Z" id="c2U5hUTqNS"></path></defs><g><g><g><use xlink:href="#c2U5hUTqNS" opacity="1" fill="#ffffff" fill-opacity="0.3"></use><g><use xlink:href="#c2U5hUTqNS" opacity="1" fill-opacity="0" stroke="#000000" stroke-width="1" stroke-opacity="0"></use></g></g></g></g></svg>