<svg xmlns="http://www.w3.org/2000/svg" width="30" height="30" viewBox="0 0 30 30">
    <g fill="none" fill-rule="evenodd">
        <g>
            <g>
                <g>
                    <g>
                        <g transform="translate(-125 -536) translate(90 501) translate(20 20) translate(15 15) translate(1 1)">
                            <rect width="23.846" height="24.509" y=".109" fill="#0976FF" stroke="#0976FF" rx="1"/>
                            <path fill="#0976FF" fill-rule="nonzero" d="M5.503 27.96H3.168c-.552 0-1-.448-1-1v-2.342h4.335v2.342c0 .552-.447 1-1 1zM17.343 26.959v-2.341h4.335v2.342c0 .552-.447 1-1 1h-2.335c-.553-.001-1-.449-1-1.001z"/>
                            <path fill="#004BA9" fill-rule="nonzero" d="M20.678 22.39H3.168c-.552 0-1-.448-1-1V3.337c0-.552.448-1 1-1h17.51c.553 0 1 .448 1 1V21.39c0 .552-.447 1-1 1z" transform="matrix(-1 0 0 1 23.846 0)"/>
                            <rect width="2.168" height="3.342" x="20.594" y="6.793" fill="#FFF" rx="1"/>
                            <rect width="2.168" height="3.342" x="20.594" y="14.592" fill="#FFF" rx="1"/>
                        </g>
                        <g>
                            <path stroke="#FFF" stroke-width="1.8" d="M7.537 2.585l5.114 8.72H2.436l5.101-8.72z" transform="translate(-125 -536) translate(90 501) translate(20 20) translate(15 15) translate(5 7)"/>
                            <path fill="#FFF" d="M7.543 5.835L5.454 9.604 9.668 9.621z" transform="translate(-125 -536) translate(90 501) translate(20 20) translate(15 15) translate(5 7)"/>
                            <path fill="#FFF" d="M0.561 8.127L7.676 5.064 7.676 8.586 0.561 8.443z" transform="translate(-125 -536) translate(90 501) translate(20 20) translate(15 15) translate(5 7) matrix(-1 0 0 1 8.237 0)"/>
                            <path fill="#FFF" d="M7.676 8.127L14.792 5.064 14.792 8.586 7.676 8.443z" transform="translate(-125 -536) translate(90 501) translate(20 20) translate(15 15) translate(5 7)"/>
                        </g>
                        <g transform="translate(-125 -536) translate(90 501) translate(20 20) translate(15 15) translate(22.17 4.686)">
                            <rect width="5" height="16" x=".83" y=".814" fill="#23C1FF" rx="2"/>
                            <path fill="#72D7FF" d="M2.83.814h1c1.105 0 2 .895 2 2v12c0 1.104-.895 2-2 2h-1v-16z"/>
                            <path fill="#FFF" d="M5.83 5.814c1.105 0 2 .895 2 2v3c0 1.104-.895 2-2 2v-7z"/>
                            <rect width="1" height="1" x="3.83" y="7.814" fill="#FFF" rx=".5"/>
                            <rect width="1" height="1" x="3.83" y="9.814" fill="#FFF" rx=".5"/>
                        </g>
                    </g>
                </g>
            </g>
        </g>
    </g>
</svg>
